<?xml version="1.0" standalone="no"?>
<!DOCTYPE svg PUBLIC "-//W3C//DTD SVG 20010904//EN"
 "http://www.w3.org/TR/2001/REC-SVG-20010904/DTD/svg10.dtd">
<svg version="1.0" xmlns="http://www.w3.org/2000/svg"
 width="266.000000pt" height="190.000000pt" viewBox="0 0 266.000000 190.000000"
 preserveAspectRatio="xMidYMid meet">
<metadata>
Created by potrace 1.16, written by Peter Selinger 2001-2019
</metadata>
<g transform="translate(0.000000,190.000000) scale(0.100000,-0.100000)"
fill="#000000" stroke="none">
<path d="M869 1480 c-47 -25 -86 -71 -99 -118 -13 -50 -13 -774 0 -824 14 -48
53 -94 101 -118 36 -19 61 -20 459 -20 398 0 423 1 459 20 48 24 87 70 101
118 13 50 13 774 0 824 -14 48 -53 94 -101 118 -36 19 -61 20 -461 20 -397 -1
-425 -2 -459 -20z m861 -479 l0 -259 -44 -11 c-61 -15 -160 -14 -199 3 -107
46 -139 202 -60 296 37 44 93 70 153 70 l50 0 0 80 0 80 50 0 50 0 0 -259z
m-654 167 c15 -29 38 -72 52 -96 l25 -43 47 93 48 93 58 3 57 3 -16 -25 c-50
-75 -127 -208 -127 -218 0 -6 32 -62 70 -124 39 -63 70 -116 70 -119 0 -3 -27
-5 -60 -5 l-60 0 -30 60 c-17 33 -39 74 -49 91 l-19 31 -52 -96 -52 -96 -54 0
c-30 0 -54 2 -54 5 0 3 34 59 75 125 l75 121 -24 37 c-12 20 -46 76 -74 125
l-52 87 60 0 60 0 26 -52z"/>
<path d="M1527 1000 c-36 -28 -52 -81 -37 -124 16 -48 43 -69 93 -70 l42 -1 3
108 3 107 -39 0 c-24 0 -49 -8 -65 -20z"/>
</g>
</svg>
